<svg xmlns="http://www.w3.org/2000/svg" width="45" height="45" viewBox="0 0 45 45">
  <g fill="none" transform="translate(.653 .852)">
    <path fill="#FFDC4A" d="M25.5811666,39.7211719 C17.9431197,37.4460938 11.2399947,30.0946875 8.83589316,20.2592578 C8.09526816,17.2292578 7.82538534,14.2202344 7.97409628,11.3448047 C7.99565878,10.9264453 7.88327597,10.5588281 7.68534628,10.2619922 L7.68534628,5.04164063 L5.21034628,5.04164063 L5.21034628,9.77050781 C5.09140097,9.85453125 4.97866659,9.95648438 4.87472128,10.0777734 C0.77362753,14.8624219 -1.03422403,21.4914844 0.59597128,28.0798828 C3.28085409,38.9309766 14.5661275,45.605625 25.371401,42.7421484 C25.4374947,42.7246875 25.5033541,42.7067578 25.5692135,42.6887109 C27.0689791,42.2749219 27.0723775,40.1653125 25.5811666,39.7211719 L25.5811666,39.7211719 Z"/>
    <path fill="#FFCE00" d="M32.9338619,35.7398438 C25.0500728,34.5726563 17.3706588,28.2478125 13.5940572,18.8535938 C12.4306197,15.9595313 11.7360494,13.0192969 11.4748385,10.1518359 C11.4390963,9.75960938 11.2923775,9.42855469 11.0769869,9.16957031 L11.0769869,4.40003906 L7.22233847,4.40003906 L7.22233847,11.1091406 C4.70339316,16.1216016 4.27390097,22.1537109 6.54827597,27.7652344 C10.7472213,38.1249609 22.8660494,43.1289844 33.1551119,38.7597656 C33.2180416,38.7330469 33.2807369,38.7060938 33.343315,38.6787891 C34.7692525,38.0562891 34.4728853,35.9676563 32.9338619,35.7398438 L32.9338619,35.7398438 Z"/>
    <path fill="#FDBA12" d="M40.9772603,19.4555859 C35.5844088,20.95125 29.1394478,19.7933203 23.4804635,16.1633203 C21.9503463,15.181875 20.4771822,14.02125 19.0984713,12.6815625 C17.1028853,10.7424609 15.4729244,8.59617188 14.222651,6.35238281 C14.0515572,6.04546875 13.8122603,5.82855469 13.5429635,5.6953125 L11.8177291,1.80597656 L8.67452597,3.20027344 L11.1014791,8.67117188 C10.8606588,13.6696875 12.6924166,18.7439063 16.5769478,22.4970703 C17.0311666,22.9359375 17.905151,23.5453125 18.6124947,24.0351563 L18.5469869,24.1409766 C25.74769,29.3189063 36.0334713,28.4885156 42.2502682,21.8378906 C42.2918697,21.7933594 42.3333541,21.7485938 42.3743697,21.7037109 C43.3118697,20.6806641 42.3146041,19.0846875 40.9772603,19.4555859 L40.9772603,19.4555859 Z"/>
    <path fill="#FFDC4A" d="M42.2865963,26.2453125 C34.3042525,27.860625 24.72769,24.4480078 17.8363619,16.7303906 C15.7133932,14.3528906 14.0250728,11.7680859 12.7784322,9.10289063 C12.681401,8.89546875 12.5568307,8.71957031 12.41269,8.574375 L12.41269,4.58320313 L9.88354941,4.58320313 L9.88354941,8.53382813 C9.64237753,8.76152344 9.45909628,9.0675 9.37413534,9.44824219 C7.97222128,15.7334766 9.52448691,22.5812109 14.1586666,27.7414453 C21.7909713,36.2403516 35.175776,36.8423438 43.547651,29.0709375 C43.5988619,29.0233594 43.6497213,28.9756641 43.7003463,28.9277344 C44.8548775,27.8344922 43.8448385,25.9299609 42.2865963,26.2453125 L42.2865963,26.2453125 Z"/>
    <path fill="#FFDC4A" d="M8.90175253,14.9494922 L8.90175253,12.9666797 C8.86999472,13.6269141 8.87022909,14.2885547 8.90175253,14.9494922 L8.90175253,14.9494922 Z"/>
    <path fill="#555A66" d="M12.5371432,6.41660156 L5.21679159,6.41660156 C3.44491659,6.41660156 2.00854941,4.98023438 2.00854941,3.20835938 C2.00854941,1.43648438 3.44491659,0.0001171875 5.21679159,0.0001171875 L12.5371432,0.0001171875 C14.3090182,0.0001171875 15.7453853,1.43648438 15.7453853,3.20835938 C15.7453853,4.98023438 14.3090182,6.41660156 12.5371432,6.41660156 L12.5371432,6.41660156 Z"/>
    <path fill="#333940" d="M12.5371432,0 L8.90175253,0 L8.90175253,6.41660156 L12.5371432,6.41660156 C14.3090182,6.41660156 15.7453853,4.98023438 15.7453853,3.20835938 C15.7453853,1.43636719 14.3090182,0 12.5371432,0 L12.5371432,0 Z"/>
  </g>
</svg>
