<svg xmlns="http://www.w3.org/2000/svg" width="41" height="50" viewBox="0 0 41 50">
  <g fill="none" fill-rule="evenodd" transform="translate(.963 .524)">
    <path fill="#00263F" d="M24.5654297,5.05859375 C24.5654297,5.76497749 24.5426435,6.40299194 24.4970703,6.97265625 C24.4514972,7.54232056 24.3603522,8.44237666 24.2236328,9.67285156 L21.5576172,32.0605469 L18.4814453,32.0605469 L15.8154297,9.67285156 C15.587564,7.6676332 15.4736328,6.12956265 15.4736328,5.05859375 C15.4736328,3.32681426 15.9293574,2.05078535 16.8408203,1.23046875 C17.7522832,0.410152148 18.7890567,0 19.9511719,0 C21.2727931,0 22.3722287,0.415848706 23.2495117,1.24755859 C24.1267948,2.07926848 24.5654297,3.34960083 24.5654297,5.05859375 Z M25.3857422,43.2714844 C25.3857422,44.7753981 24.8616589,46.0400339 23.8134766,47.0654297 C22.7652942,48.0908254 21.5006584,48.6035156 20.0195312,48.6035156 C18.5611906,48.6035156 17.3079479,48.0908254 16.2597656,47.0654297 C15.2115833,46.0400339 14.6875,44.7753981 14.6875,43.2714844 C14.6875,41.7675706 15.2001902,40.4915417 16.2255859,39.4433594 C17.2509817,38.3951771 18.5156175,37.8710938 20.0195312,37.8710938 C21.523445,37.8710938 22.7937774,38.3894805 23.8305664,39.4262695 C24.8673554,40.4630586 25.3857422,41.744784 25.3857422,43.2714844 Z" opacity=".385" style="mix-blend-mode:multiply"/>
    <path fill="#FFF" fill-rule="nonzero" d="M5.60058594,23.5732422 C6.20605469,23.5732422 6.76269531,23.483724 7.27050781,23.3046875 C7.77832031,23.125651 8.1640625,22.8896484 8.42773438,22.5966797 L8.42773438,22.5966797 L8.42773438,19.6767578 L5.52246094,19.6767578 L5.52246094,20.8535156 L6.71386719,20.8535156 L6.71386719,21.9570312 C6.49576823,22.155599 6.16373698,22.2548828 5.71777344,22.2548828 C5.1969401,22.2548828 4.81526693,22.0766602 4.57275391,21.7202148 C4.33024089,21.3637695 4.20898438,20.8307292 4.20898438,20.1210938 L4.20898438,20.1210938 L4.20898438,19.6914062 C4.21223958,19.0143229 4.33105469,18.4934896 4.56542969,18.1289062 C4.79980469,17.7643229 5.13183594,17.5820312 5.56152344,17.5820312 C5.91959635,17.5820312 6.19628906,17.6666667 6.39160156,17.8359375 C6.58691406,18.0052083 6.71386719,18.2884115 6.77246094,18.6855469 L6.77246094,18.6855469 L8.42285156,18.6855469 C8.34147135,17.8815104 8.05582682,17.2768555 7.56591797,16.871582 C7.07600911,16.4663086 6.38834635,16.2636719 5.50292969,16.2636719 C4.89746094,16.2636719 4.36442057,16.4044596 3.90380859,16.6860352 C3.44319661,16.9676107 3.08919271,17.3696289 2.84179688,17.8920898 C2.59440104,18.4145508 2.47070312,19.0257161 2.47070312,19.7255859 L2.47070312,19.7255859 L2.47558594,20.3408203 C2.51464844,21.3564453 2.8125,22.1490885 3.36914062,22.71875 C3.92578125,23.2884115 4.66959635,23.5732422 5.60058594,23.5732422 Z M11.9042969,23.5732422 C12.3372396,23.5732422 12.7416992,23.4894206 13.1176758,23.3217773 C13.4936523,23.1541341 13.7841797,22.9287109 13.9892578,22.6455078 L13.9892578,22.6455078 L13.2373047,21.7568359 C12.9443359,22.1214193 12.5374349,22.3037109 12.0166016,22.3037109 C11.7008464,22.3037109 11.4436849,22.2190755 11.2451172,22.0498047 C11.0465495,21.8805339 10.9179688,21.6477865 10.859375,21.3515625 L10.859375,21.3515625 L14.1308594,21.3515625 L14.1308594,20.7119141 C14.1308594,19.8883464 13.9160156,19.2462565 13.4863281,18.7856445 C13.0566406,18.3250326 12.4707031,18.0947266 11.7285156,18.0947266 C11.2011719,18.0947266 10.7454427,18.2078451 10.3613281,18.434082 C9.97721354,18.660319 9.68505859,18.9801432 9.48486328,19.3935547 C9.28466797,19.8069661 9.18457031,20.2838542 9.18457031,20.8242188 L9.18457031,20.8242188 L9.18457031,20.9609375 C9.18457031,21.7356771 9.43522135,22.3647461 9.93652344,22.8481445 C10.4378255,23.331543 11.09375,23.5732422 11.9042969,23.5732422 Z M12.5195312,20.3212891 L10.859375,20.3212891 C10.9505208,19.6832682 11.2369792,19.3642578 11.71875,19.3642578 C11.9791667,19.3642578 12.179362,19.4366862 12.3193359,19.581543 C12.4593099,19.7263997 12.5260417,19.9306641 12.5195312,20.1943359 L12.5195312,20.1943359 L12.5195312,20.3212891 Z M16.7236328,23.5732422 C17.0458984,23.5732422 17.3551432,23.5260417 17.6513672,23.4316406 L17.6513672,23.4316406 L17.6513672,22.2548828 C17.5406901,22.2744141 17.4039714,22.2841797 17.2412109,22.2841797 C17.0296224,22.2841797 16.8880208,22.2451172 16.8164062,22.1669922 C16.7447917,22.0888672 16.7089844,21.9505208 16.7089844,21.7519531 L16.7089844,21.7519531 L16.7089844,19.3349609 L17.578125,19.3349609 L17.578125,18.1923828 L16.7089844,18.1923828 L16.7089844,16.8789062 L15.0634766,16.8789062 L15.0634766,18.1923828 L14.3896484,18.1923828 L14.3896484,19.3349609 L15.0634766,19.3349609 L15.0634766,21.9570312 C15.0634766,22.500651 15.1985677,22.9059245 15.46875,23.1728516 C15.7389323,23.4397786 16.1572266,23.5732422 16.7236328,23.5732422 Z M22.5048828,23.4755859 L22.5048828,21.0634766 L23.5986328,21.0634766 C24.4645182,21.0634766 25.1456706,20.855957 25.6420898,20.440918 C26.1385091,20.0258789 26.3867188,19.4716797 26.3867188,18.7783203 C26.3867188,18.3095703 26.2719727,17.8904622 26.0424805,17.5209961 C25.8129883,17.1515299 25.4890951,16.8666992 25.0708008,16.6665039 C24.6525065,16.4663086 24.1715495,16.3662109 23.6279297,16.3662109 L23.6279297,16.3662109 L20.7910156,16.3662109 L20.7910156,23.4755859 L22.5048828,23.4755859 Z M23.6279297,19.7402344 L22.5048828,19.7402344 L22.5048828,17.6894531 L23.6474609,17.6894531 C23.9567057,17.6927083 24.2008464,17.7936198 24.3798828,17.9921875 C24.5589193,18.1907552 24.6484375,18.4560547 24.6484375,18.7880859 C24.6484375,19.0908203 24.5613607,19.3251953 24.387207,19.4912109 C24.2130534,19.6572266 23.9599609,19.7402344 23.6279297,19.7402344 L23.6279297,19.7402344 Z M28.8818359,23.4755859 L28.8818359,20.1308594 C29.0283203,19.8053385 29.3603516,19.6425781 29.8779297,19.6425781 L29.8779297,19.6425781 L30.4199219,19.6816406 L30.4492188,18.1533203 C30.3190104,18.1142578 30.1660156,18.0947266 29.9902344,18.0947266 C29.4954427,18.0947266 29.1097005,18.3535156 28.8330078,18.8710938 L28.8330078,18.8710938 L28.7792969,18.1923828 L27.2363281,18.1923828 L27.2363281,23.4755859 L28.8818359,23.4755859 Z M33.5693359,23.5732422 C34.0022786,23.5732422 34.4067383,23.4894206 34.7827148,23.3217773 C35.1586914,23.1541341 35.4492188,22.9287109 35.6542969,22.6455078 L35.6542969,22.6455078 L34.9023438,21.7568359 C34.609375,22.1214193 34.202474,22.3037109 33.6816406,22.3037109 C33.3658854,22.3037109 33.108724,22.2190755 32.9101562,22.0498047 C32.7115885,21.8805339 32.5830078,21.6477865 32.5244141,21.3515625 L32.5244141,21.3515625 L35.7958984,21.3515625 L35.7958984,20.7119141 C35.7958984,19.8883464 35.5810547,19.2462565 35.1513672,18.7856445 C34.7216797,18.3250326 34.1357422,18.0947266 33.3935547,18.0947266 C32.8662109,18.0947266 32.4104818,18.2078451 32.0263672,18.434082 C31.6422526,18.660319 31.3500977,18.9801432 31.1499023,19.3935547 C30.949707,19.8069661 30.8496094,20.2838542 30.8496094,20.8242188 L30.8496094,20.8242188 L30.8496094,20.9609375 C30.8496094,21.7356771 31.1002604,22.3647461 31.6015625,22.8481445 C32.1028646,23.331543 32.7587891,23.5732422 33.5693359,23.5732422 Z M34.1845703,20.3212891 L32.5244141,20.3212891 C32.6155599,19.6832682 32.9020182,19.3642578 33.3837891,19.3642578 C33.6442057,19.3642578 33.844401,19.4366862 33.984375,19.581543 C34.124349,19.7263997 34.1910807,19.9306641 34.1845703,20.1943359 L34.1845703,20.1943359 L34.1845703,20.3212891 Z M39.6728516,21.0488281 L39.6728516,19.7744141 L36.7382812,19.7744141 L36.7382812,21.0488281 L39.6728516,21.0488281 Z M5.07324219,37.7744141 L6.1328125,36.8759766 L4.98535156,35.9677734 C5.36946615,35.6715495 5.67057292,35.2784831 5.88867188,34.7885742 C6.10677083,34.2986654 6.21582031,33.7249349 6.21582031,33.0673828 L6.21582031,33.0673828 L6.21582031,32.7402344 C6.2125651,32.0566406 6.07991536,31.4503581 5.81787109,30.9213867 C5.55582682,30.3924154 5.18880208,29.9847005 4.71679688,29.6982422 C4.24479167,29.4117839 3.70768229,29.2685547 3.10546875,29.2685547 C2.49348958,29.2685547 1.95068359,29.4134115 1.47705078,29.703125 C1.00341797,29.9928385 0.638834635,30.4029948 0.383300781,30.9335938 C0.127766927,31.4641927 0,32.0794271 0,32.7792969 L0,32.7792969 L0,33.1552734 C0.009765625,33.8323568 0.145670573,34.4313151 0.407714844,34.9521484 C0.669759115,35.4729818 1.03515625,35.8733724 1.50390625,36.1533203 C1.97265625,36.4332682 2.50976562,36.5732422 3.11523438,36.5732422 C3.25846354,36.5732422 3.40169271,36.5634766 3.54492187,36.5439453 L3.54492187,36.5439453 L5.07324219,37.7744141 Z M3.11523438,35.2353516 C2.65950521,35.2353516 2.31608073,35.0489909 2.08496094,34.6762695 C1.85384115,34.3035482 1.73828125,33.7672526 1.73828125,33.0673828 L1.73828125,33.0673828 L1.73828125,32.7402344 C1.74153646,32.0436198 1.85709635,31.5146484 2.08496094,31.1533203 C2.31282552,30.7919922 2.65299479,30.6113281 3.10546875,30.6113281 C3.54492188,30.6113281 3.88264974,30.7944336 4.11865234,31.1606445 C4.35465495,31.5268555 4.47265625,32.063151 4.47265625,32.7695312 L4.47265625,32.7695312 L4.47265625,33.0966797 C4.46940104,33.7867839 4.35139974,34.3157552 4.11865234,34.6835938 C3.88590495,35.0514323 3.55143229,35.2353516 3.11523438,35.2353516 Z M8.75,36.5732422 C9.34244792,36.5732422 9.81282552,36.3502604 10.1611328,35.9042969 L10.1611328,35.9042969 L10.2099609,36.4755859 L11.7529297,36.4755859 L11.7529297,31.1923828 L10.0976562,31.1923828 L10.0976562,34.8984375 C9.93815104,35.1686198 9.66959635,35.3037109 9.29199219,35.3037109 C8.85253906,35.3037109 8.6328125,35.077474 8.6328125,34.625 L8.6328125,34.625 L8.6328125,31.1923828 L6.98730469,31.1923828 L6.98730469,34.6152344 C6.98730469,35.2467448 7.13623047,35.730957 7.43408203,36.0678711 C7.73193359,36.4047852 8.17057292,36.5732422 8.75,36.5732422 Z M14.2041016,36.5732422 C14.7477214,36.5732422 15.1708984,36.3828125 15.4736328,36.0019531 C15.5192057,36.2102865 15.5712891,36.3681641 15.6298828,36.4755859 L15.6298828,36.4755859 L17.2753906,36.4755859 L17.2753906,36.3925781 C17.1321615,36.1354167 17.0572917,35.7643229 17.0507812,35.2792969 L17.0507812,35.2792969 L17.0507812,32.9404297 C17.0410156,32.367513 16.8408203,31.9166667 16.4501953,31.5878906 C16.0595703,31.2591146 15.5273438,31.0947266 14.8535156,31.0947266 C14.1796875,31.0947266 13.6254883,31.2542318 13.190918,31.5732422 C12.7563477,31.8922526 12.5390625,32.3072917 12.5390625,32.8183594 L12.5390625,32.8183594 L14.1845703,32.8183594 C14.1845703,32.4342448 14.3798828,32.2421875 14.7705078,32.2421875 C15.1904297,32.2421875 15.4003906,32.4847005 15.4003906,32.9697266 L15.4003906,32.9697266 L15.4003906,33.2480469 L14.8925781,33.2480469 C14.0852865,33.2480469 13.4700521,33.3945312 13.046875,33.6875 C12.6236979,33.9804688 12.4121094,34.4134115 12.4121094,34.9863281 C12.4121094,35.4420573 12.586263,35.8204753 12.9345703,36.121582 C13.2828776,36.4226888 13.7060547,36.5732422 14.2041016,36.5732422 Z M14.5996094,35.4013672 C14.4433594,35.4013672 14.3147786,35.3549805 14.2138672,35.262207 C14.1129557,35.1694336 14.0625,35.0481771 14.0625,34.8984375 C14.0625,34.3841146 14.3489583,34.1269531 14.921875,34.1269531 L14.921875,34.1269531 L15.4003906,34.1269531 L15.4003906,34.9716797 C15.3417969,35.0823568 15.2449544,35.1816406 15.1098633,35.2695312 C14.9747721,35.3574219 14.8046875,35.4013672 14.5996094,35.4013672 Z M19.6972656,36.4755859 L19.6972656,28.9755859 L18.046875,28.9755859 L18.046875,36.4755859 L19.6972656,36.4755859 Z M21.6113281,30.6308594 C21.8815104,30.6308594 22.101237,30.5559896 22.2705078,30.40625 C22.4397786,30.2565104 22.5244141,30.0644531 22.5244141,29.8300781 C22.5244141,29.5957031 22.4397786,29.4036458 22.2705078,29.2539062 C22.101237,29.1041667 21.8815104,29.0292969 21.6113281,29.0292969 C21.3411458,29.0292969 21.1214193,29.1041667 20.9521484,29.2539062 C20.7828776,29.4036458 20.6982422,29.5957031 20.6982422,29.8300781 C20.6982422,30.0644531 20.7828776,30.2565104 20.9521484,30.40625 C21.1214193,30.5559896 21.3411458,30.6308594 21.6113281,30.6308594 Z M22.4462891,36.4755859 L22.4462891,31.1923828 L20.7958984,31.1923828 L20.7958984,36.4755859 L22.4462891,36.4755859 Z M25.4931641,36.4755859 L25.4931641,32.3349609 L26.5283203,32.3349609 L26.5283203,31.1923828 L25.4931641,31.1923828 L25.4931641,31.0996094 C25.4931641,30.5266927 25.8072917,30.2402344 26.4355469,30.2402344 C26.8294271,30.2402344 27.203776,30.2874349 27.5585938,30.3818359 L27.5585938,30.3818359 L27.8320312,30.4550781 L28.0566406,29.15625 C27.3958333,28.9674479 26.8229167,28.8730469 26.3378906,28.8730469 C25.5664062,28.8730469 24.9658203,29.0488281 24.5361328,29.4003906 C24.0836589,29.7747396 23.8525391,30.3134766 23.8427734,31.0166016 L23.8427734,31.0166016 L23.8427734,31.1923828 L23.0761719,31.1923828 L23.0761719,32.3349609 L23.8427734,32.3349609 L23.8427734,36.4755859 L25.4931641,36.4755859 Z M28.8134766,36.4755859 L28.8134766,31.1923828 L27.1582031,31.1923828 L27.1582031,36.4755859 L28.8134766,36.4755859 Z M32.3730469,36.5732422 C32.8059896,36.5732422 33.2104492,36.4894206 33.5864258,36.3217773 C33.9624023,36.1541341 34.2529297,35.9287109 34.4580078,35.6455078 L34.4580078,35.6455078 L33.7060547,34.7568359 C33.4130859,35.1214193 33.0061849,35.3037109 32.4853516,35.3037109 C32.1695964,35.3037109 31.9124349,35.2190755 31.7138672,35.0498047 C31.5152995,34.8805339 31.3867188,34.6477865 31.328125,34.3515625 L31.328125,34.3515625 L34.5996094,34.3515625 L34.5996094,33.7119141 C34.5996094,32.8883464 34.3847656,32.2462565 33.9550781,31.7856445 C33.5253906,31.3250326 32.9394531,31.0947266 32.1972656,31.0947266 C31.6699219,31.0947266 31.2141927,31.2078451 30.8300781,31.434082 C30.4459635,31.660319 30.1538086,31.9801432 29.9536133,32.3935547 C29.753418,32.8069661 29.6533203,33.2838542 29.6533203,33.8242188 L29.6533203,33.8242188 L29.6533203,33.9609375 C29.6533203,34.7356771 29.9039714,35.3647461 30.4052734,35.8481445 C30.9065755,36.331543 31.5625,36.5732422 32.3730469,36.5732422 Z M32.9882813,33.3212891 L31.328125,33.3212891 C31.4192708,32.6832682 31.7057292,32.3642578 32.1875,32.3642578 C32.4479167,32.3642578 32.648112,32.4366862 32.7880859,32.581543 C32.9280599,32.7263997 32.9947917,32.9306641 32.9882813,33.1943359 L32.9882813,33.1943359 L32.9882813,33.3212891 Z M37.0996094,36.5732422 C37.6204427,36.5732422 38.0501302,36.351888 38.3886719,35.9091797 L38.3886719,35.9091797 L38.4716797,36.4755859 L39.9511719,36.4755859 L39.9511719,28.9755859 L38.3007812,28.9755859 L38.3007812,31.6513672 C37.9785156,31.2802734 37.5813802,31.0947266 37.109375,31.0947266 C36.4615885,31.0947266 35.9570312,31.335612 35.5957031,31.8173828 C35.234375,32.2991536 35.0537109,32.9583333 35.0537109,33.7949219 C35.0537109,34.6835938 35.2376302,35.3688151 35.6054688,35.8505859 C35.9733073,36.3323568 36.4713542,36.5732422 37.0996094,36.5732422 Z M37.5195312,35.3037109 C36.9726562,35.3037109 36.6992188,34.8349609 36.6992188,33.8974609 L36.6992188,33.8974609 L36.7041016,33.5947266 C36.7464193,32.7744141 37.0214844,32.3642578 37.5292969,32.3642578 C37.8938802,32.3642578 38.1510417,32.5205078 38.3007812,32.8330078 L38.3007812,32.8330078 L38.3007812,34.8447266 C38.1445312,35.1507161 37.8841146,35.3037109 37.5195312,35.3037109 Z"/>
  </g>
</svg>
