<svg xmlns="http://www.w3.org/2000/svg" width="41" height="39" viewBox="0 0 41 39">
  <g fill="none" transform="translate(0 .812)">
    <polygon fill="#FFF" points="27.574 0 5.127 0 5.127 38.115 32.873 38.115 32.873 5.289"/>
    <polygon fill="#E0E0E0" points="32.873 5.289 27.574 0 18.995 0 18.995 38.115 32.873 38.115"/>
    <polygon fill="silver" points="27.574 5.289 32.873 5.289 27.574 0"/>
    <rect width="30.643" height="16.056" x="9.908" y="17.544" fill="#D9E021"/>
    <rect width="15.363" height="16.056" x="25.188" y="17.544" fill="#8CC63F"/>
    <path fill="#60C344" d="M38.8483984,29.140117 L38.8483984,22.0040936 C37.2970703,22.0040936 36.0394141,20.7490058 36.0394141,19.2005848 L14.419375,19.2005848 C14.419375,20.7488889 13.1618359,22.0040936 11.6103906,22.0040936 L11.6103906,29.140117 C13.1617188,29.140117 14.419375,30.3952047 14.419375,31.9436257 L36.0395313,31.9436257 C36.0394141,30.3952047 37.2970703,29.140117 38.8483984,29.140117 Z"/>
    <path fill="#47AB4B" d="M36.0394141,19.2007018 L25.1880859,19.2007018 L25.1880859,31.9436257 L36.0394141,31.9436257 C36.0394141,30.3953216 37.2969531,29.140117 38.8483984,29.140117 L38.8483984,22.0040936 C37.2970703,22.0040936 36.0394141,20.7488889 36.0394141,19.2007018 Z"/>
    <ellipse cx="25.229" cy="25.572" fill="#D9E021" rx="2.852" ry="4.864"/>
    <path fill="#8CC63F" d="M25.2293359,20.708538 C25.2155078,20.708538 25.2019141,20.7099415 25.1880859,20.7102924 L25.1880859,30.4339181 C25.2019141,30.434269 25.2153906,30.4356725 25.2293359,30.4356725 C26.8042188,30.4356725 28.0808594,28.2582456 28.0808594,25.5721637 C28.0808594,22.8859649 26.8042188,20.708538 25.2293359,20.708538 Z"/>
    <g transform="translate(0 8.188)">
      <ellipse cx="8.722" cy="8.699" fill="#FF6838" rx="8.368" ry="8.352"/>
      <path fill="#AE4E32" d="M8.72113281,0.346549708 C8.6659375,0.346549708 8.6115625,0.349590643 8.55671875,0.350643275 L8.55671875,17.0470175 C8.6115625,17.0480702 8.6659375,17.0512281 8.72113281,17.0512281 C13.3430078,17.0512281 17.0897266,13.3118129 17.0897266,8.69894737 C17.0897266,4.08608187 13.3428906,0.346549708 8.72113281,0.346549708 Z"/>
      <polygon fill="#FFF" points="6.933 14.05 2.888 10.013 4.955 7.95 6.933 9.924 12.487 4.379 14.554 6.442"/>
      <polygon fill="#E0E0E0" points="12.487 4.379 8.557 8.303 8.557 12.429 14.554 6.442"/>
    </g>
  </g>
</svg>
