<svg xmlns="http://www.w3.org/2000/svg" width="38" height="35" viewBox="0 0 38 35">
  <g fill="none" transform="translate(.242 .156)">
    <polygon fill="#FFF" points="27.351 0 4.851 0 4.851 26.746 32.664 26.746 32.664 5.312"/>
    <polygon fill="#E0E0E0" points="32.664 5.312 27.351 0 18.719 0 18.719 26.746 32.664 26.746"/>
    <polygon fill="silver" points="27.351 5.312 32.664 5.312 27.351 0"/>
    <polygon fill="#FFDC00" points="37.515 34.685 0 34.685 0 5.003 8.99 5.003 12.031 8.837 37.515 8.837"/>
    <polygon fill="#FFC000" points="18.719 8.837 37.516 8.837 37.516 34.686 18.719 34.686"/>
    <g transform="translate(10.111 14.19)">
      <ellipse cx="8.368" cy="8.352" fill="#FF6838" rx="8.368" ry="8.352"/>
      <path fill="#AE4E32" d="M8.36777344,0 C8.31257813,0 8.25820313,0.00304093567 8.20335938,0.00409356725 L8.20335938,16.7004678 C8.25820313,16.7015205 8.31257813,16.7046784 8.36777344,16.7046784 C12.9896484,16.7046784 16.7363672,12.9652632 16.7363672,8.35239766 C16.7363672,3.73953216 12.9895313,0 8.36777344,0 Z"/>
      <polygon fill="#FFF" points="6.579 13.703 2.535 9.666 4.601 7.604 6.579 9.578 12.134 4.033 14.201 6.095"/>
      <polygon fill="#E0E0E0" points="12.134 4.033 8.203 7.957 8.203 12.082 14.201 6.095"/>
    </g>
  </g>
</svg>
