<svg xmlns="http://www.w3.org/2000/svg" width="45" height="41" viewBox="0 0 45 41">
  <g fill="none" transform="translate(.114)">
    <path fill="#FF81AE" d="M34.1511635,13.4639844 L34.1511635,8.55136719 C34.1511635,8.55136719 30.1435854,8.81363281 28.504601,12.38 L15.7222572,12.38 C8.98456192,12.38 3.52256973,17.8419922 3.52256973,24.5796875 L3.52256973,24.5796875 C3.52256973,28.9525391 5.82378067,32.7873828 9.28081192,34.9410547 L11.2625697,40.4837891 L17.3469447,40.4837891 L17.3469447,36.779375 L25.8732729,36.779375 L25.8732729,40.4837891 L31.9576479,40.4837891 L33.6333119,35.7972266 C35.4473744,35.1262109 37.1380385,34.1230859 38.6115541,32.8216016 L44.4989369,26.4894922 L44.4989369,21.0096875 L34.1511635,13.4639844 Z"/>
    <path fill="#FF3F84" d="M34.1511635,13.4638672 L34.1511635,8.55125 C34.1511635,8.55125 30.1435854,8.81351562 28.504601,12.3798828 L21.8804604,12.3798828 L21.8804604,36.779375 L25.8730385,36.779375 L25.8730385,40.4837891 L31.9574135,40.4837891 L33.6330775,35.7972266 C35.44714,35.1262109 37.1378041,34.1230859 38.6113197,32.8216016 L44.4987025,26.4894922 L44.4987025,21.0096875 L34.1511635,13.4638672 Z" opacity=".66"/>
    <path fill="#FF81AE" d="M5.18253067,22.6728125 L2.32221817,21.4310937 C0.429991605,20.6672656 -0.49274277,18.5083203 0.265108793,16.611875 C0.633077543,15.69125 1.33737442,14.9690234 2.24850723,14.5782031 C3.15952286,14.1875 4.16839004,14.1748437 5.08901504,14.5428125 L4.48022598,16.06625 C3.96647598,15.8610547 3.40362442,15.8679687 2.89526504,16.0860547 C2.38690567,16.3041406 1.99397598,16.7070312 1.78866348,17.2206641 C1.36491348,18.2810937 1.88276504,19.4885937 2.94307754,19.9123437 L2.96522598,19.9216016 L5.83585098,21.1678906 L5.18253067,22.6728125 Z"/>
    <path fill="#333" d="M31.721515,19.6066016 C31.721515,18.4956641 32.622101,17.5950781 33.7330385,17.5950781 C34.843976,17.5950781 35.7445619,18.4956641 35.7445619,19.6066016 L31.721515,19.6066016 Z"/>
    <g transform="translate(13.886 1)">
      <circle cx="8" cy="8.118" r="7.595" fill="#60C344"/>
      <path fill="#47AB4B" d="M8,0.522539063 C7.986875,0.522539063 7.97398438,0.523476563 7.96097656,0.523476563 L7.96097656,15.7117969 C7.97410156,15.7117969 7.986875,15.7127344 8,15.7127344 C12.1947266,15.7127344 15.5951563,12.3123047 15.5951563,8.11757813 C15.5951563,3.92296875 12.1947266,0.522539063 8,0.522539063 Z"/>
      <polygon fill="#ECF0F1" points="6.351 12.315 3 8.964 4.667 7.297 6.351 8.982 11.333 4 13 5.667"/>
    </g>
  </g>
</svg>
