<svg xmlns="http://www.w3.org/2000/svg" width="41" height="49" viewBox="0 0 41 49">
  <g fill="none" fill-rule="evenodd" transform="translate(.963)">
    <path fill="#590F38" d="M24.9145508,5.05859375 C24.9145508,5.76497749 24.8917646,6.40299194 24.8461914,6.97265625 C24.8006183,7.54232056 24.7094733,8.44237666 24.5727539,9.67285156 L21.9067383,32.0605469 L18.8305664,32.0605469 L16.1645508,9.67285156 C15.9366851,7.6676332 15.8227539,6.12956265 15.8227539,5.05859375 C15.8227539,3.32681426 16.2784785,2.05078535 17.1899414,1.23046875 C18.1014043,0.410152148 19.1381778,0 20.300293,0 C21.6219142,0 22.7213498,0.415848706 23.5986328,1.24755859 C24.4759158,2.07926848 24.9145508,3.34960083 24.9145508,5.05859375 Z M25.7348633,43.2714844 C25.7348633,44.7753981 25.21078,46.0400339 24.1625977,47.0654297 C23.1144153,48.0908254 21.8497795,48.6035156 20.3686523,48.6035156 C18.9103117,48.6035156 17.657069,48.0908254 16.6088867,47.0654297 C15.5607044,46.0400339 15.0366211,44.7753981 15.0366211,43.2714844 C15.0366211,41.7675706 15.5493113,40.4915417 16.574707,39.4433594 C17.6001028,38.3951771 18.8647386,37.8710938 20.3686523,37.8710938 C21.8725661,37.8710938 23.1428985,38.3894805 24.1796875,39.4262695 C25.2164765,40.4630586 25.7348633,41.744784 25.7348633,43.2714844 Z" opacity=".311" style="mix-blend-mode:multiply"/>
    <path fill="#FFF" fill-rule="nonzero" d="M5.60058594,24.0976562 C6.20605469,24.0976562 6.76269531,24.008138 7.27050781,23.8291016 C7.77832031,23.6500651 8.1640625,23.4140625 8.42773438,23.1210938 L8.42773438,23.1210938 L8.42773438,20.2011719 L5.52246094,20.2011719 L5.52246094,21.3779297 L6.71386719,21.3779297 L6.71386719,22.4814453 C6.49576823,22.680013 6.16373698,22.7792969 5.71777344,22.7792969 C5.1969401,22.7792969 4.81526693,22.6010742 4.57275391,22.2446289 C4.33024089,21.8881836 4.20898438,21.3551432 4.20898438,20.6455078 L4.20898438,20.6455078 L4.20898438,20.2158203 C4.21223958,19.538737 4.33105469,19.0179036 4.56542969,18.6533203 C4.79980469,18.288737 5.13183594,18.1064453 5.56152344,18.1064453 C5.91959635,18.1064453 6.19628906,18.1910807 6.39160156,18.3603516 C6.58691406,18.5296224 6.71386719,18.8128255 6.77246094,19.2099609 L6.77246094,19.2099609 L8.42285156,19.2099609 C8.34147135,18.4059245 8.05582682,17.8012695 7.56591797,17.3959961 C7.07600911,16.9907227 6.38834635,16.7880859 5.50292969,16.7880859 C4.89746094,16.7880859 4.36442057,16.9288737 3.90380859,17.2104492 C3.44319661,17.4920247 3.08919271,17.894043 2.84179688,18.4165039 C2.59440104,18.9389648 2.47070312,19.5501302 2.47070312,20.25 L2.47070312,20.25 L2.47558594,20.8652344 C2.51464844,21.8808594 2.8125,22.6735026 3.36914062,23.2431641 C3.92578125,23.8128255 4.66959635,24.0976562 5.60058594,24.0976562 Z M11.9042969,24.0976562 C12.3372396,24.0976562 12.7416992,24.0138346 13.1176758,23.8461914 C13.4936523,23.6785482 13.7841797,23.453125 13.9892578,23.1699219 L13.9892578,23.1699219 L13.2373047,22.28125 C12.9443359,22.6458333 12.5374349,22.828125 12.0166016,22.828125 C11.7008464,22.828125 11.4436849,22.7434896 11.2451172,22.5742188 C11.0465495,22.4049479 10.9179688,22.1722005 10.859375,21.8759766 L10.859375,21.8759766 L14.1308594,21.8759766 L14.1308594,21.2363281 C14.1308594,20.4127604 13.9160156,19.7706706 13.4863281,19.3100586 C13.0566406,18.8494466 12.4707031,18.6191406 11.7285156,18.6191406 C11.2011719,18.6191406 10.7454427,18.7322591 10.3613281,18.9584961 C9.97721354,19.1847331 9.68505859,19.5045573 9.48486328,19.9179688 C9.28466797,20.3313802 9.18457031,20.8082682 9.18457031,21.3486328 L9.18457031,21.3486328 L9.18457031,21.4853516 C9.18457031,22.2600911 9.43522135,22.8891602 9.93652344,23.3725586 C10.4378255,23.855957 11.09375,24.0976562 11.9042969,24.0976562 Z M12.5195312,20.8457031 L10.859375,20.8457031 C10.9505208,20.2076823 11.2369792,19.8886719 11.71875,19.8886719 C11.9791667,19.8886719 12.179362,19.9611003 12.3193359,20.105957 C12.4593099,20.2508138 12.5260417,20.4550781 12.5195312,20.71875 L12.5195312,20.71875 L12.5195312,20.8457031 Z M16.7236328,24.0976562 C17.0458984,24.0976562 17.3551432,24.0504557 17.6513672,23.9560547 L17.6513672,23.9560547 L17.6513672,22.7792969 C17.5406901,22.7988281 17.4039714,22.8085938 17.2412109,22.8085938 C17.0296224,22.8085938 16.8880208,22.7695312 16.8164062,22.6914062 C16.7447917,22.6132812 16.7089844,22.4749349 16.7089844,22.2763672 L16.7089844,22.2763672 L16.7089844,19.859375 L17.578125,19.859375 L17.578125,18.7167969 L16.7089844,18.7167969 L16.7089844,17.4033203 L15.0634766,17.4033203 L15.0634766,18.7167969 L14.3896484,18.7167969 L14.3896484,19.859375 L15.0634766,19.859375 L15.0634766,22.4814453 C15.0634766,23.0250651 15.1985677,23.4303385 15.46875,23.6972656 C15.7389323,23.9641927 16.1572266,24.0976562 16.7236328,24.0976562 Z M22.5048828,24 L22.5048828,21.5878906 L23.5986328,21.5878906 C24.4645182,21.5878906 25.1456706,21.3803711 25.6420898,20.965332 C26.1385091,20.550293 26.3867188,19.9960938 26.3867188,19.3027344 C26.3867188,18.8339844 26.2719727,18.4148763 26.0424805,18.0454102 C25.8129883,17.675944 25.4890951,17.3911133 25.0708008,17.190918 C24.6525065,16.9907227 24.1715495,16.890625 23.6279297,16.890625 L23.6279297,16.890625 L20.7910156,16.890625 L20.7910156,24 L22.5048828,24 Z M23.6279297,20.2646484 L22.5048828,20.2646484 L22.5048828,18.2138672 L23.6474609,18.2138672 C23.9567057,18.2171224 24.2008464,18.3180339 24.3798828,18.5166016 C24.5589193,18.7151693 24.6484375,18.9804688 24.6484375,19.3125 C24.6484375,19.6152344 24.5613607,19.8496094 24.387207,20.015625 C24.2130534,20.1816406 23.9599609,20.2646484 23.6279297,20.2646484 L23.6279297,20.2646484 Z M28.8818359,24 L28.8818359,20.6552734 C29.0283203,20.3297526 29.3603516,20.1669922 29.8779297,20.1669922 L29.8779297,20.1669922 L30.4199219,20.2060547 L30.4492188,18.6777344 C30.3190104,18.6386719 30.1660156,18.6191406 29.9902344,18.6191406 C29.4954427,18.6191406 29.1097005,18.8779297 28.8330078,19.3955078 L28.8330078,19.3955078 L28.7792969,18.7167969 L27.2363281,18.7167969 L27.2363281,24 L28.8818359,24 Z M33.5693359,24.0976562 C34.0022786,24.0976562 34.4067383,24.0138346 34.7827148,23.8461914 C35.1586914,23.6785482 35.4492188,23.453125 35.6542969,23.1699219 L35.6542969,23.1699219 L34.9023438,22.28125 C34.609375,22.6458333 34.202474,22.828125 33.6816406,22.828125 C33.3658854,22.828125 33.108724,22.7434896 32.9101562,22.5742188 C32.7115885,22.4049479 32.5830078,22.1722005 32.5244141,21.8759766 L32.5244141,21.8759766 L35.7958984,21.8759766 L35.7958984,21.2363281 C35.7958984,20.4127604 35.5810547,19.7706706 35.1513672,19.3100586 C34.7216797,18.8494466 34.1357422,18.6191406 33.3935547,18.6191406 C32.8662109,18.6191406 32.4104818,18.7322591 32.0263672,18.9584961 C31.6422526,19.1847331 31.3500977,19.5045573 31.1499023,19.9179688 C30.949707,20.3313802 30.8496094,20.8082682 30.8496094,21.3486328 L30.8496094,21.3486328 L30.8496094,21.4853516 C30.8496094,22.2600911 31.1002604,22.8891602 31.6015625,23.3725586 C32.1028646,23.855957 32.7587891,24.0976562 33.5693359,24.0976562 Z M34.1845703,20.8457031 L32.5244141,20.8457031 C32.6155599,20.2076823 32.9020182,19.8886719 33.3837891,19.8886719 C33.6442057,19.8886719 33.844401,19.9611003 33.984375,20.105957 C34.124349,20.2508138 34.1910807,20.4550781 34.1845703,20.71875 L34.1845703,20.71875 L34.1845703,20.8457031 Z M39.6728516,21.5732422 L39.6728516,20.2988281 L36.7382812,20.2988281 L36.7382812,21.5732422 L39.6728516,21.5732422 Z M5.07324219,38.2988281 L6.1328125,37.4003906 L4.98535156,36.4921875 C5.36946615,36.1959635 5.67057292,35.8028971 5.88867188,35.3129883 C6.10677083,34.8230794 6.21582031,34.249349 6.21582031,33.5917969 L6.21582031,33.5917969 L6.21582031,33.2646484 C6.2125651,32.5810547 6.07991536,31.9747721 5.81787109,31.4458008 C5.55582682,30.9168294 5.18880208,30.5091146 4.71679688,30.2226562 C4.24479167,29.9361979 3.70768229,29.7929688 3.10546875,29.7929688 C2.49348958,29.7929688 1.95068359,29.9378255 1.47705078,30.2275391 C1.00341797,30.5172526 0.638834635,30.9274089 0.383300781,31.4580078 C0.127766927,31.9886068 0,32.6038411 0,33.3037109 L0,33.3037109 L0,33.6796875 C0.009765625,34.3567708 0.145670573,34.9557292 0.407714844,35.4765625 C0.669759115,35.9973958 1.03515625,36.3977865 1.50390625,36.6777344 C1.97265625,36.9576823 2.50976562,37.0976562 3.11523438,37.0976562 C3.25846354,37.0976562 3.40169271,37.0878906 3.54492187,37.0683594 L3.54492187,37.0683594 L5.07324219,38.2988281 Z M3.11523438,35.7597656 C2.65950521,35.7597656 2.31608073,35.5734049 2.08496094,35.2006836 C1.85384115,34.8279622 1.73828125,34.2916667 1.73828125,33.5917969 L1.73828125,33.5917969 L1.73828125,33.2646484 C1.74153646,32.5680339 1.85709635,32.0390625 2.08496094,31.6777344 C2.31282552,31.3164062 2.65299479,31.1357422 3.10546875,31.1357422 C3.54492188,31.1357422 3.88264974,31.3188477 4.11865234,31.6850586 C4.35465495,32.0512695 4.47265625,32.5875651 4.47265625,33.2939453 L4.47265625,33.2939453 L4.47265625,33.6210938 C4.46940104,34.3111979 4.35139974,34.8401693 4.11865234,35.2080078 C3.88590495,35.5758464 3.55143229,35.7597656 3.11523438,35.7597656 Z M8.75,37.0976562 C9.34244792,37.0976562 9.81282552,36.8746745 10.1611328,36.4287109 L10.1611328,36.4287109 L10.2099609,37 L11.7529297,37 L11.7529297,31.7167969 L10.0976562,31.7167969 L10.0976562,35.4228516 C9.93815104,35.6930339 9.66959635,35.828125 9.29199219,35.828125 C8.85253906,35.828125 8.6328125,35.601888 8.6328125,35.1494141 L8.6328125,35.1494141 L8.6328125,31.7167969 L6.98730469,31.7167969 L6.98730469,35.1396484 C6.98730469,35.7711589 7.13623047,36.2553711 7.43408203,36.5922852 C7.73193359,36.9291992 8.17057292,37.0976562 8.75,37.0976562 Z M14.2041016,37.0976562 C14.7477214,37.0976562 15.1708984,36.9072266 15.4736328,36.5263672 C15.5192057,36.7347005 15.5712891,36.8925781 15.6298828,37 L15.6298828,37 L17.2753906,37 L17.2753906,36.9169922 C17.1321615,36.6598307 17.0572917,36.288737 17.0507812,35.8037109 L17.0507812,35.8037109 L17.0507812,33.4648438 C17.0410156,32.8919271 16.8408203,32.4410807 16.4501953,32.1123047 C16.0595703,31.7835286 15.5273438,31.6191406 14.8535156,31.6191406 C14.1796875,31.6191406 13.6254883,31.7786458 13.190918,32.0976562 C12.7563477,32.4166667 12.5390625,32.8317057 12.5390625,33.3427734 L12.5390625,33.3427734 L14.1845703,33.3427734 C14.1845703,32.9586589 14.3798828,32.7666016 14.7705078,32.7666016 C15.1904297,32.7666016 15.4003906,33.0091146 15.4003906,33.4941406 L15.4003906,33.4941406 L15.4003906,33.7724609 L14.8925781,33.7724609 C14.0852865,33.7724609 13.4700521,33.9189453 13.046875,34.2119141 C12.6236979,34.5048828 12.4121094,34.9378255 12.4121094,35.5107422 C12.4121094,35.9664714 12.586263,36.3448893 12.9345703,36.6459961 C13.2828776,36.9471029 13.7060547,37.0976562 14.2041016,37.0976562 Z M14.5996094,35.9257812 C14.4433594,35.9257812 14.3147786,35.8793945 14.2138672,35.7866211 C14.1129557,35.6938477 14.0625,35.5725911 14.0625,35.4228516 C14.0625,34.9085286 14.3489583,34.6513672 14.921875,34.6513672 L14.921875,34.6513672 L15.4003906,34.6513672 L15.4003906,35.4960938 C15.3417969,35.6067708 15.2449544,35.7060547 15.1098633,35.7939453 C14.9747721,35.8818359 14.8046875,35.9257812 14.5996094,35.9257812 Z M19.6972656,37 L19.6972656,29.5 L18.046875,29.5 L18.046875,37 L19.6972656,37 Z M21.6113281,31.1552734 C21.8815104,31.1552734 22.101237,31.0804036 22.2705078,30.9306641 C22.4397786,30.7809245 22.5244141,30.5888672 22.5244141,30.3544922 C22.5244141,30.1201172 22.4397786,29.9280599 22.2705078,29.7783203 C22.101237,29.6285807 21.8815104,29.5537109 21.6113281,29.5537109 C21.3411458,29.5537109 21.1214193,29.6285807 20.9521484,29.7783203 C20.7828776,29.9280599 20.6982422,30.1201172 20.6982422,30.3544922 C20.6982422,30.5888672 20.7828776,30.7809245 20.9521484,30.9306641 C21.1214193,31.0804036 21.3411458,31.1552734 21.6113281,31.1552734 Z M22.4462891,37 L22.4462891,31.7167969 L20.7958984,31.7167969 L20.7958984,37 L22.4462891,37 Z M25.4931641,37 L25.4931641,32.859375 L26.5283203,32.859375 L26.5283203,31.7167969 L25.4931641,31.7167969 L25.4931641,31.6240234 C25.4931641,31.0511068 25.8072917,30.7646484 26.4355469,30.7646484 C26.8294271,30.7646484 27.203776,30.811849 27.5585938,30.90625 L27.5585938,30.90625 L27.8320312,30.9794922 L28.0566406,29.6806641 C27.3958333,29.491862 26.8229167,29.3974609 26.3378906,29.3974609 C25.5664062,29.3974609 24.9658203,29.5732422 24.5361328,29.9248047 C24.0836589,30.2991536 23.8525391,30.8378906 23.8427734,31.5410156 L23.8427734,31.5410156 L23.8427734,31.7167969 L23.0761719,31.7167969 L23.0761719,32.859375 L23.8427734,32.859375 L23.8427734,37 L25.4931641,37 Z M28.8134766,37 L28.8134766,31.7167969 L27.1582031,31.7167969 L27.1582031,37 L28.8134766,37 Z M32.3730469,37.0976562 C32.8059896,37.0976562 33.2104492,37.0138346 33.5864258,36.8461914 C33.9624023,36.6785482 34.2529297,36.453125 34.4580078,36.1699219 L34.4580078,36.1699219 L33.7060547,35.28125 C33.4130859,35.6458333 33.0061849,35.828125 32.4853516,35.828125 C32.1695964,35.828125 31.9124349,35.7434896 31.7138672,35.5742188 C31.5152995,35.4049479 31.3867188,35.1722005 31.328125,34.8759766 L31.328125,34.8759766 L34.5996094,34.8759766 L34.5996094,34.2363281 C34.5996094,33.4127604 34.3847656,32.7706706 33.9550781,32.3100586 C33.5253906,31.8494466 32.9394531,31.6191406 32.1972656,31.6191406 C31.6699219,31.6191406 31.2141927,31.7322591 30.8300781,31.9584961 C30.4459635,32.1847331 30.1538086,32.5045573 29.9536133,32.9179688 C29.753418,33.3313802 29.6533203,33.8082682 29.6533203,34.3486328 L29.6533203,34.3486328 L29.6533203,34.4853516 C29.6533203,35.2600911 29.9039714,35.8891602 30.4052734,36.3725586 C30.9065755,36.855957 31.5625,37.0976562 32.3730469,37.0976562 Z M32.9882813,33.8457031 L31.328125,33.8457031 C31.4192708,33.2076823 31.7057292,32.8886719 32.1875,32.8886719 C32.4479167,32.8886719 32.648112,32.9611003 32.7880859,33.105957 C32.9280599,33.2508138 32.9947917,33.4550781 32.9882813,33.71875 L32.9882813,33.71875 L32.9882813,33.8457031 Z M37.0996094,37.0976562 C37.6204427,37.0976562 38.0501302,36.8763021 38.3886719,36.4335938 L38.3886719,36.4335938 L38.4716797,37 L39.9511719,37 L39.9511719,29.5 L38.3007812,29.5 L38.3007812,32.1757812 C37.9785156,31.8046875 37.5813802,31.6191406 37.109375,31.6191406 C36.4615885,31.6191406 35.9570312,31.860026 35.5957031,32.3417969 C35.234375,32.8235677 35.0537109,33.4827474 35.0537109,34.3193359 C35.0537109,35.2080078 35.2376302,35.8932292 35.6054688,36.375 C35.9733073,36.8567708 36.4713542,37.0976562 37.0996094,37.0976562 Z M37.5195312,35.828125 C36.9726562,35.828125 36.6992188,35.359375 36.6992188,34.421875 L36.6992188,34.421875 L36.7041016,34.1191406 C36.7464193,33.2988281 37.0214844,32.8886719 37.5292969,32.8886719 C37.8938802,32.8886719 38.1510417,33.0449219 38.3007812,33.3574219 L38.3007812,33.3574219 L38.3007812,35.3691406 C38.1445312,35.6751302 37.8841146,35.828125 37.5195312,35.828125 Z"/>
  </g>
</svg>
